{
	"patcher" : 	{
		"fileversion" : 1,
		"appversion" : 		{
			"major" : 8,
			"minor" : 6,
			"revision" : 5,
			"architecture" : "x64",
			"modernui" : 1
		}
,
		"classnamespace" : "dsp.gen",
		"rect" : [ 59.0, 106.0, 1058.0, 571.0 ],
		"bglocked" : 0,
		"openinpresentation" : 0,
		"default_fontsize" : 12.0,
		"default_fontface" : 0,
		"default_fontname" : "Arial",
		"gridonopen" : 1,
		"gridsize" : [ 15.0, 15.0 ],
		"gridsnaponopen" : 1,
		"objectsnaponopen" : 1,
		"statusbarvisible" : 2,
		"toolbarvisible" : 1,
		"lefttoolbarpinned" : 0,
		"toptoolbarpinned" : 0,
		"righttoolbarpinned" : 0,
		"bottomtoolbarpinned" : 0,
		"toolbars_unpinned_last_save" : 0,
		"tallnewobj" : 0,
		"boxanimatetime" : 200,
		"enablehscroll" : 1,
		"enablevscroll" : 1,
		"devicewidth" : 0.0,
		"description" : "",
		"digest" : "",
		"tags" : "",
		"style" : "",
		"subpatcher_template" : "",
		"assistshowspatchername" : 0,
		"boxes" : [ 			{
				"box" : 				{
					"id" : "obj-11",
					"linecount" : 2,
					"maxclass" : "newobj",
					"numinlets" : 0,
					"numoutlets" : 1,
					"outlettype" : [ "" ],
					"patching_rect" : [ 473.0, 19.0, 234.0, 36.0 ],
					"text" : "in 3 @comment Q (0.5 - 100) [default: 20] @default 20 @min 0.5 @max 100"
				}

			}
, 			{
				"box" : 				{
					"id" : "obj-10",
					"linecount" : 2,
					"maxclass" : "newobj",
					"numinlets" : 0,
					"numoutlets" : 1,
					"outlettype" : [ "" ],
					"patching_rect" : [ 244.0, 19.0, 224.0, 36.0 ],
					"text" : "in 2 @comment freq (hz) [default: 1600] @default 1600 @min 1 @max 20000"
				}

			}
, 			{
				"box" : 				{
					"fontname" : "Lato",
					"fontsize" : 12.0,
					"id" : "obj-7",
					"maxclass" : "newobj",
					"numinlets" : 1,
					"numoutlets" : 0,
					"patching_rect" : [ 473.0, 344.0, 135.0, 23.0 ],
					"text" : "out 4 @comment notch"
				}

			}
, 			{
				"box" : 				{
					"fontname" : "Lato",
					"fontsize" : 12.0,
					"id" : "obj-6",
					"maxclass" : "newobj",
					"numinlets" : 1,
					"numoutlets" : 0,
					"patching_rect" : [ 320.0, 344.0, 151.5, 23.0 ],
					"text" : "out 3 @comment bandpass"
				}

			}
, 			{
				"box" : 				{
					"fontname" : "Lato",
					"fontsize" : 12.0,
					"id" : "obj-3",
					"maxclass" : "newobj",
					"numinlets" : 1,
					"numoutlets" : 0,
					"patching_rect" : [ 167.0, 344.0, 140.0, 23.0 ],
					"text" : "out 2 @comment hipass"
				}

			}
, 			{
				"box" : 				{
					"code" : "// two-stage delay:\r\nHistory d1(0), d2(0);\r\n\r\nfreq = in2; \r\nQ = in3; \r\n\r\n// parameter conversion:\r\nq1 = 1 / Q;\r\nf1 = sin(twopi*freq/samplerate);\r\n// low, high, band & notch:\r\nL = d2 + f1*d1;\r\nH = in1 - L - q1*d1;\r\nB = f1 * H + d1;\r\nN = H+L;\r\n// store delay:\r\nd1, d2 = B, L;\r\n\r\nout1, out2, out3, out4 = L, H, B, N;",
					"fontface" : 0,
					"fontname" : "<Monospaced>",
					"fontsize" : 12.0,
					"id" : "obj-5",
					"maxclass" : "codebox",
					"numinlets" : 3,
					"numoutlets" : 4,
					"outlettype" : [ "", "", "", "" ],
					"patching_rect" : [ 14.0, 64.0, 478.0, 267.0 ]
				}

			}
, 			{
				"box" : 				{
					"fontname" : "Lato",
					"fontsize" : 12.0,
					"id" : "obj-1",
					"maxclass" : "newobj",
					"numinlets" : 0,
					"numoutlets" : 1,
					"outlettype" : [ "" ],
					"patching_rect" : [ 14.0, 19.0, 30.0, 23.0 ],
					"text" : "in 1"
				}

			}
, 			{
				"box" : 				{
					"fontname" : "Lato",
					"fontsize" : 12.0,
					"id" : "obj-4",
					"maxclass" : "newobj",
					"numinlets" : 1,
					"numoutlets" : 0,
					"patching_rect" : [ 14.0, 344.0, 149.0, 23.0 ],
					"text" : "out 1 @comment lowpass"
				}

			}
 ],
		"lines" : [ 			{
				"patchline" : 				{
					"destination" : [ "obj-5", 0 ],
					"source" : [ "obj-1", 0 ]
				}

			}
, 			{
				"patchline" : 				{
					"destination" : [ "obj-5", 1 ],
					"source" : [ "obj-10", 0 ]
				}

			}
, 			{
				"patchline" : 				{
					"destination" : [ "obj-5", 2 ],
					"source" : [ "obj-11", 0 ]
				}

			}
, 			{
				"patchline" : 				{
					"destination" : [ "obj-3", 0 ],
					"source" : [ "obj-5", 1 ]
				}

			}
, 			{
				"patchline" : 				{
					"destination" : [ "obj-4", 0 ],
					"source" : [ "obj-5", 0 ]
				}

			}
, 			{
				"patchline" : 				{
					"destination" : [ "obj-6", 0 ],
					"source" : [ "obj-5", 2 ]
				}

			}
, 			{
				"patchline" : 				{
					"destination" : [ "obj-7", 0 ],
					"source" : [ "obj-5", 3 ]
				}

			}
 ]
	}

}
